<?xml version="1.0" encoding="utf-8"?>
<!-- Generator: Adobe Illustrator 23.0.6, SVG Export Plug-In . SVG Version: 6.00 Build 0)  -->
<svg version="1.1" id="Layer_1" xmlns="http://www.w3.org/2000/svg" xmlns:xlink="http://www.w3.org/1999/xlink" x="0px" y="0px"
	 viewBox="0 0 60 35.5" style="enable-background:new 0 0 60 35.5;" xml:space="preserve">
<path id="crown" d="M50.6,6.3l-7.3-4.9L37.6,5L30,0l-7.6,5l-5.7-3.7L9.4,6.3L0,1.7l10,30.2l0.3,0.2c0.2,0.1,5,3.4,19.7,3.4
	s19.6-3.3,19.7-3.4l0.3-0.2L60,1.7L50.6,6.3z M43.3,3.5l5.4,3.7l-4.5,2.2l-5-3.3L43.3,3.5z M16.7,3.5l4,2.6l-5,3.3l-4.5-2.2
	L16.7,3.5z M15.9,11.7L30,2.4l14.1,9.3l12.5-6.1l-5.8,17.5c-0.4,0.2-1.2,0.4-2.3,0.8c-6,1.6-12.3,2.4-18.5,2.2
	c-6.2,0.1-12.4-0.6-18.5-2.2c-0.8-0.2-1.5-0.5-2.3-0.8L3.4,5.6L15.9,11.7z M48.3,30.5c-1.1,0.6-6.2,2.9-18.3,2.9
	c-12.2,0-17.2-2.3-18.3-2.9l-1.6-4.9c3.1,1,9.6,2.6,19.9,2.6s16.9-1.6,19.9-2.6L48.3,30.5z"/>
</svg>
